<?xml version="1.0" standalone="no"?><!DOCTYPE svg PUBLIC "-//W3C//DTD SVG 1.1//EN" "http://www.w3.org/Graphics/SVG/1.1/DTD/svg11.dtd"><svg class="icon" width="200px" height="200.00px" viewBox="0 0 1024 1024" version="1.1" xmlns="http://www.w3.org/2000/svg"><path fill="#e6e6e6" d="M851.652923 263.325538a35.209846 35.209846 0 0 1 15.123692 27.648v430.08c0 10.24-6.616615 22.528-15.123692 27.648l-120.044308 75.776c-8.507077 5.12-15.123692 1.024-15.123692-9.216V394.397538a35.209846 35.209846 0 0 0-15.123692-27.648L581.316923 291.997538c-8.507077-5.12-15.123692-1.024-15.123692 9.216v106.496c0 10.24-7.561846 18.432-17.014154 18.432H434.806154c-9.452308 0-17.014154-8.192-17.014154-18.432V11.421538c0-10.24 6.616615-14.336 15.123692-9.216l418.737231 261.12zM417.792 606.365538c0-10.24 7.561846-18.432 17.014154-18.432h115.318154c9.452308 0 17.014154 8.192 17.014154 18.432v396.288c0 10.24-6.616615 14.336-15.123693 9.216L133.277538 749.725538A35.209846 35.209846 0 0 1 118.153846 722.077538v-430.08c0-10.24 6.616615-22.528 15.123692-27.648l120.044308-74.752c8.507077-5.12 15.123692-1.024 15.123692 9.216v420.864c0 10.24 6.616615 22.528 15.123693 27.648l119.099077 74.752c8.507077 5.12 15.123692 1.024 15.123692-9.216V606.365538z" /></svg>