<?xml version="1.0" standalone="no"?><!DOCTYPE svg PUBLIC "-//W3C//DTD SVG 1.1//EN" "http://www.w3.org/Graphics/SVG/1.1/DTD/svg11.dtd"><svg t="1765591158662" class="icon" viewBox="0 0 1024 1024" version="1.1" xmlns="http://www.w3.org/2000/svg" p-id="5547" width="16" height="16" xmlns:xlink="http://www.w3.org/1999/xlink"><path d="M532.909443 1024h-0.294295c-37.905216-0.117718-70.498405-23.308176-83.050094-59.079753L201.945109 258.55301c-5.606323-16.009657-1.559764-33.829228 10.447478-45.821756a44.17076 44.17076 0 0 1 45.821756-10.447478l706.367237 247.649375c35.771576 12.536974 58.962035 45.144877 59.079752 83.050094 0.117718 37.905216-22.866734 70.645553-58.564736 83.403247l-257.110964 91.923093-91.923092 257.125679c-12.728266 35.594999-45.336169 58.564736-83.123668 58.564736z m-0.220722-87.80296z m0.206007-0.470872l91.923092-257.125679c8.931858-25.000374 28.399483-44.467998 53.414572-53.414571l257.125679-91.923093-619.726743-217.292829 217.2634 619.726742z m402.934215-402.257336z" p-id="5548" fill="#1296db"></path><path d="M114.730739 497.608967c-11.300934 0-22.601868-4.311424-31.210001-12.934272C29.885445 431.039402 0.338211 359.716971 0.338211 283.862394S29.885445 136.685386 83.520738 83.050093c110.728553-110.728553 290.896048-110.728553 401.624601 0 17.245696 17.245696 17.245696 45.189021 0 62.434718s-45.189021 17.245696-62.434718 0c-76.310734-76.310734-200.459146-76.310734-276.769881 0-76.310734 76.310734-76.310734 200.459146 0 276.769881 17.245696 17.245696 17.245696 45.189021 0 62.434717a44.011841 44.011841 0 0 1-31.210001 12.934273z" p-id="5549" fill="#1296db"></path></svg>